<svg width="17" height="18" viewBox="0 0 17 18" fill="none" xmlns="http://www.w3.org/2000/svg">
<path d="M3.77778 3.6V0.899999C3.77778 0.661305 3.87728 0.432386 4.0544 0.263604C4.23152 0.094821 4.47174 0 4.72222 0H16.0556C16.306 0 16.5463 0.094821 16.7234 0.263604C16.9005 0.432386 17 0.661305 17 0.899999V13.5C17 13.7387 16.9005 13.9676 16.7234 14.1364C16.5463 14.3052 16.306 14.4 16.0556 14.4H13.2222V17.1C13.2222 17.5968 12.7972 18 12.2712 18H0.951056C0.826509 18.0007 0.703042 17.9779 0.587749 17.933C0.472456 17.8881 0.367609 17.822 0.279233 17.7384C0.190857 17.6547 0.120693 17.5553 0.0727735 17.4457C0.0248536 17.3362 0.000122187 17.2187 0 17.1L0.00283335 4.5C0.00283335 4.0032 0.427834 3.6 0.953889 3.6H3.77778ZM1.89172 5.4L1.88889 16.2H11.3333V5.4H1.89172ZM5.66667 3.6H13.2222V12.6H15.1111V1.8H5.66667V3.6Z" fill="#3F4254"/>
</svg>
