<svg width="3" height="14" viewBox="0 0 3 14" fill="none" xmlns="http://www.w3.org/2000/svg">
<path d="M1.5 0C2.325 0 3 0.7 3 1.55556C3 2.41111 2.325 3.11111 1.5 3.11111C0.675 3.11111 0 2.41111 0 1.55556C0 0.7 0.675 0 1.5 0ZM1.5 10.8889C2.325 10.8889 3 11.5889 3 12.4444C3 13.3 2.325 14 1.5 14C0.675 14 0 13.3 0 12.4444C0 11.5889 0.675 10.8889 1.5 10.8889ZM1.5 5.44444C2.325 5.44444 3 6.14444 3 7C3 7.85556 2.325 8.55556 1.5 8.55556C0.675 8.55556 0 7.85556 0 7C0 6.14444 0.675 5.44444 1.5 5.44444Z" fill="#F35625"/>
</svg>
